<svg xmlns="http://www.w3.org/2000/svg" viewBox="0 0 64 64" fill="none">
  <rect width="64" height="64" rx="14" fill="#0B0A0F"/>
  <path d="M19 44c2.5 0 4.2-1.1 5.4-2.5 1.5-1.8 2.3-4.3 2.3-6.6 0-5.1-3-9.9-9-9.9-6.1 0-9 4.8-9 9.9 0 2.3.8 4.8 2.3 6.6C12.2 42.9 14 44 16.4 44Zm28.6-25c-2.5 0-4.3 1.1-5.5 2.6-1.5 1.8-2.2 4.2-2.2 6.4 0 5.1 3 9.9 9 9.9 6.1 0 9-4.8 9-9.9 0-2.2-.8-4.6-2.2-6.4-1.2-1.5-3-2.6-5.5-2.6ZM26.8 49h10.4c3 0 4.6-2.6 3.4-5-2.3-4.9-5.7-8.2-8.6-8.2-3 0-6.3 3.3-8.6 8.2-1.2 2.4.4 5 3.4 5Z" fill="#E7D0A9"/>
</svg>
